<?xml version="1.0" standalone="no"?>
<!DOCTYPE svg PUBLIC "-//W3C//DTD SVG 20010904//EN"
 "http://www.w3.org/TR/2001/REC-SVG-20010904/DTD/svg10.dtd">
<svg version="1.0" xmlns="http://www.w3.org/2000/svg"
 width="700.000000pt" height="700.000000pt" viewBox="0 0 700.000000 700.000000"
 preserveAspectRatio="xMidYMid meet">
<metadata>
Created by potrace 1.14, written by Peter Selinger 2001-2017
</metadata>
<g transform="translate(0.000000,700.000000) scale(0.100000,-0.100000)"
fill="#000000" stroke="none">
<path d="M3245 6374 c-581 -61 -1061 -283 -1449 -669 -441 -437 -686 -1028
-686 -1650 0 -132 14 -300 35 -408 7 -38 11 -66 9 -64 -3 2 -64 101 -135 218
-72 118 -136 218 -143 222 -6 4 -35 6 -64 4 -65 -5 -121 -45 -140 -102 -14
-44 -18 -36 163 -330 1259 -2037 1432 -2322 1438 -2371 14 -98 106 -181 191
-170 136 17 180 192 76 296 -26 26 -481 747 -559 885 -3 5 15 -6 39 -26 214
-172 548 -334 846 -409 38 -9 41 -13 58 -71 55 -180 232 -319 477 -372 82 -18
100 -26 104 -42 2 -11 9 -58 16 -104 20 -137 -14 -127 435 -136 421 -8 546 -3
574 25 24 24 44 122 37 186 -3 28 -15 70 -26 92 -12 23 -17 43 -12 47 6 3 53
21 106 40 53 19 109 42 125 50 l30 16 0 -205 0 -205 26 -20 c26 -20 38 -21
331 -21 l304 0 24 25 c23 22 25 32 25 113 0 49 -5 104 -12 123 -32 95 -103
155 -198 166 l-52 6 6 116 c12 209 11 207 63 232 61 30 153 117 186 176 53 98
57 135 57 530 l0 363 98 0 c125 0 190 18 231 65 22 26 31 46 31 71 0 30 8 43
54 85 29 27 61 64 70 83 28 60 17 166 -19 179 -8 4 -80 16 -158 27 -195 28
-177 17 -157 103 53 221 71 578 41 797 -70 518 -287 968 -641 1334 -190 196
-389 342 -625 459 -222 110 -455 185 -695 222 -101 15 -450 28 -535 19z m105
-639 l0 -475 -440 0 -440 0 21 58 c37 100 146 314 209 408 117 176 245 306
384 391 62 38 205 93 244 93 l22 0 0 -475z m261 459 c249 -74 495 -317 668
-661 45 -90 111 -246 111 -262 0 -8 -138 -11 -440 -11 l-440 0 0 475 0 475 23
0 c13 0 48 -7 78 -16z m-847 -131 c-163 -165 -323 -428 -425 -698 l-38 -100
-330 -3 c-182 -1 -331 1 -331 4 0 16 143 196 221 278 193 204 456 389 709 497
81 35 228 87 247 88 7 1 -17 -29 -53 -66z m1408 27 c393 -141 748 -405 1004
-750 30 -40 54 -75 54 -77 0 -1 -150 -3 -332 -3 l-333 0 -33 93 c-89 246 -251
519 -407 685 -48 50 -82 92 -76 92 5 0 61 -18 123 -40z m-1927 -1007 c-11 -29
-75 -316 -75 -339 0 -19 -7 -22 -81 -27 -147 -10 -261 -89 -310 -216 -19 -46
-23 -82 -27 -208 l-4 -153 -240 0 -240 0 7 78 c17 210 71 445 141 624 37 94
98 223 116 246 8 9 93 12 365 12 334 0 355 -1 348 -17z m1105 -311 l0 -328
-67 -18 c-38 -10 -73 -20 -79 -22 -6 -3 -16 18 -23 49 -22 98 -103 196 -200
241 -43 20 -64 21 -348 24 -183 2 -303 7 -303 13 0 32 74 339 87 362 2 4 213
7 469 7 l464 0 0 -328z m1114 277 c13 -43 50 -201 71 -306 l7 -33 -296 0
c-352 0 -372 -4 -467 -99 -53 -53 -99 -141 -99 -187 0 -13 -6 -15 -27 -9 -16
4 -53 13 -83 19 l-55 12 -3 314 c-1 173 0 320 3 327 3 10 105 13 469 13 l465
0 15 -51z m912 -41 c119 -237 198 -533 217 -810 l4 -58 -243 0 -242 0 -4 163
c-3 156 -4 164 -32 220 -59 116 -156 178 -292 185 l-81 4 -13 72 c-7 39 -25
124 -41 189 -16 65 -29 120 -29 123 0 2 160 4 355 4 l355 0 46 -92z m-2026
-793 l0 -75 -80 0 -80 0 0 43 c0 33 5 45 22 56 22 14 115 50 131 51 4 0 7 -34
7 -75z m283 48 c36 -15 37 -16 37 -69 l0 -54 -80 0 -80 0 0 76 0 76 43 -7 c23
-4 59 -14 80 -22z m-1843 -343 c56 -112 151 -178 267 -188 73 -6 66 8 83 -157
18 -170 64 -406 106 -548 5 -16 -15 -17 -352 -15 l-358 3 -23 40 c-76 133
-167 394 -203 584 -23 116 -44 317 -35 331 4 6 94 10 245 10 l240 0 30 -60z
m1560 -425 l0 -485 -467 2 -468 3 -32 125 c-38 145 -80 386 -90 506 l-6 84
316 0 c293 0 320 1 371 20 75 29 139 88 177 166 l32 64 83 0 84 0 0 -485z
m354 432 c38 -80 88 -132 164 -169 l67 -33 322 -3 c299 -3 323 -4 323 -20 0
-35 -32 -260 -51 -362 -21 -107 -39 -185 -65 -278 l-15 -52 -467 2 -467 3 -3
470 c-1 259 0 476 3 483 3 8 30 12 84 12 l80 0 25 -53z m1889 46 c4 -9 -9
-178 -19 -237 l-6 -40 -20 27 c-39 53 -69 61 -223 60 -201 -2 -339 -35 -457
-110 -48 -31 -64 -49 -88 -98 -44 -89 -54 -171 -47 -382 l6 -183 -60 0 c-32 0
-59 2 -59 4 0 3 13 60 30 128 36 147 65 313 81 465 l12 110 60 6 c74 7 174 54
216 103 17 19 45 62 61 94 l30 60 240 0 c131 0 241 -3 243 -7z m-141 -343 c15
-19 36 -80 76 -220 11 -38 63 -58 233 -86 85 -14 156 -28 158 -30 9 -8 -46
-57 -97 -86 -57 -33 -72 -62 -53 -105 7 -14 9 -28 6 -32 -4 -3 -76 -7 -161 -7
-133 -2 -158 -4 -174 -19 -19 -17 -20 -34 -20 -425 0 -446 -2 -469 -60 -548
-32 -45 -118 -107 -162 -117 -59 -15 -65 -33 -77 -240 -18 -311 -19 -305 7
-325 19 -15 34 -18 96 -13 70 5 74 5 106 -24 28 -25 34 -38 38 -86 l4 -57
-226 0 -226 0 0 395 0 395 -65 0 -65 0 0 -159 0 -160 -53 -30 c-51 -29 -260
-111 -284 -111 -9 0 -13 16 -13 48 -1 123 -57 277 -131 357 -77 83 -197 135
-312 135 l-62 0 3 -64 4 -64 68 -4 c129 -7 221 -77 271 -205 17 -46 23 -84 26
-183 5 -167 5 -167 58 -190 53 -23 77 -63 73 -123 l-3 -42 -80 -3 c-44 -2
-220 -1 -392 3 l-311 7 -6 32 c-18 96 -29 250 -28 391 0 281 53 453 170 552
145 124 409 281 915 543 194 101 195 101 183 187 -5 40 -4 44 12 38 88 -36
171 -31 235 15 86 61 132 151 152 293 l6 47 -65 0 -65 0 -6 -47 c-16 -111 -81
-203 -144 -203 -50 0 -96 31 -122 82 -42 81 -36 309 11 386 45 74 260 134 459
127 64 -2 77 -6 93 -25z m-3678 -1210 c339 -551 616 -1005 616 -1010 0 -6 -6
-10 -14 -10 -7 0 -25 -10 -40 -21 -15 -12 -29 -20 -30 -18 -7 8 -1229 1994
-1232 2004 -4 8 57 50 77 54 4 1 284 -449 623 -999z m533 413 c56 -166 168
-397 257 -533 79 -118 109 -156 198 -247 39 -40 66 -73 60 -73 -27 0 -247 85
-350 136 -215 106 -457 285 -617 456 -71 77 -215 258 -215 272 0 3 149 6 330
6 306 0 331 -1 337 -17z m1043 -171 l0 -188 -34 4 c-27 3 -47 -4 -90 -33 -83
-55 -194 -179 -241 -268 -22 -42 -43 -77 -47 -77 -10 0 -131 135 -183 205 -94
127 -196 317 -268 503 l-17 42 440 0 440 0 0 -188z m1040 177 c0 -6 -14 -44
-31 -84 l-31 -74 -182 -104 c-437 -250 -544 -347 -612 -562 l-22 -70 -1 453
-1 452 440 0 c306 0 440 -3 440 -11z m210 -14 c-25 -12 -46 -22 -47 -21 -1 1
0 12 4 24 4 18 12 22 47 22 l41 -1 -45 -24z m-1250 -726 c0 -200 0 -200 -22
-197 -30 4 -39 46 -28 137 11 86 42 261 47 261 2 0 3 -90 3 -201z m-159 89
c-47 -232 -26 -359 76 -448 42 -37 120 -75 174 -85 35 -7 37 -8 43 -58 3 -29
6 -69 6 -90 0 -38 0 -39 -32 -32 -130 26 -241 78 -315 147 -123 117 -143 280
-58 466 27 59 103 167 112 159 3 -3 0 -29 -6 -59z m-716 -880 c94 -74 43 -221
-60 -172 -44 21 -68 58 -69 110 -2 78 67 111 129 62z"/>
</g>
</svg>
